<svg width="2500" height="791" viewBox="0 0 512 162" xmlns="http://www.w3.org/2000/svg" preserveAspectRatio="xMidYMid"><path d="M265.94 43.18a8.22 8.22 0 00-11.66 0l-1.46 1.46a8.3 8.3 0 000 11.7l1.55 1.57a54.14 54.14 0 0112.4-13.9l-.83-.83zm50.36-8.1c.01-.19.05-.35.05-.54V30.4a8.26 8.26 0 00-8.24-8.28h-14.43a8.26 8.26 0 00-8.24 8.28v4.07a53.17 53.17 0 0130.86.6zm-61.77 51.6a45.92 45.92 0 1091.84 0 45.92 45.92 0 00-91.84 0zm45.92-32.8c18.09 0 32.8 14.7 32.8 32.8s-14.72 32.8-32.8 32.8a32.84 32.84 0 01-32.8-32.8 32.84 32.84 0 0132.8-32.8zm7.67 7.16l-7.48 26.48 24.07-13.19a27.55 27.55 0 00-16.6-13.29z" fill="#42AFDA"/><path d="M90.32 130.13a539.2 539.2 0 01-5.34-14.84c-1.67-4.87-3.4-9.81-5.18-14.84H27.38l-10.52 29.68H0A3831.28 3831.28 0 0112.52 96a1470.64 1470.64 0 0111.44-29.76 1037.75 1037.75 0 0111.1-26.92 693.31 693.31 0 0111.52-25.4h14.86a693.31 693.31 0 0111.52 25.4 1056.4 1056.4 0 0111.1 26.92A1519.57 1519.57 0 0195.5 96a3958.71 3958.71 0 0112.52 34.13h-17.7zm-15.2-43.1a1901.52 1901.52 0 00-10.6-28.25A506.66 506.66 0 0053.6 32.53c-3.9 8.39-7.6 17.13-11.1 26.25a1136.37 1136.37 0 00-10.44 28.25h43.08zm73.63 44.77c-9.57-.22-16.36-2.29-20.37-6.2-4-3.91-6-10-6-18.28V2.68L137.9 0v104.8c0 2.58.22 4.7.67 6.38a8.78 8.78 0 002.17 4.02c1 1 2.33 1.76 4 2.27 1.68.5 3.73.92 6.18 1.26l-2.17 13.07zm73.96-10.4c-1.34.9-3.93 2.05-7.76 3.44-3.84 1.4-8.32 2.1-13.44 2.1-5.24 0-10.16-.84-14.78-2.51a32.1 32.1 0 01-12.1-7.8 37.74 37.74 0 01-8.18-13.16c-2-5.26-3-11.52-3-18.78 0-6.38.93-12.22 2.83-17.53 1.9-5.3 4.64-9.9 8.26-13.75a37.89 37.89 0 0113.27-9.06c5.24-2.18 11.13-3.27 17.7-3.27 7.24 0 13.55.54 18.95 1.6 5.4 1.06 9.93 2.04 13.6 2.93v77.81c0 13.42-3.44 23.14-10.34 29.18-6.9 6.03-17.37 9.05-31.39 9.05a88.18 88.18 0 01-28.05-4.52l2.84-13.59a72.36 72.36 0 0011.44 3.27c4.5.95 9.2 1.43 14.1 1.43 9.24 0 15.9-1.85 19.95-5.54 4.07-3.68 6.1-9.56 6.1-17.6v-3.7zm-6.43-65.98a75.38 75.38 0 00-10.6-.59c-8.35 0-14.77 2.75-19.28 8.22-4.51 5.48-6.76 12.75-6.76 21.8 0 5.03.63 9.34 1.92 12.91 1.28 3.58 3 6.54 5.17 8.9a20.26 20.26 0 007.51 5.19 23.7 23.7 0 008.77 1.68c4.12 0 7.9-.6 11.35-1.76 3.45-1.18 6.18-2.55 8.18-4.11V56.68a51.15 51.15 0 00-6.26-1.26zm172.51 76.39c-9.57-.23-16.36-2.3-20.36-6.2-4.01-3.92-6.01-10.02-6.01-18.29V2.68L377.94 0v104.8c0 2.58.22 4.7.67 6.38a8.72 8.72 0 002.17 4.03c1 1 2.34 1.76 4 2.26 1.68.5 3.73.92 6.18 1.26l-2.17 13.08zM416 27.17a9.94 9.94 0 01-7.09-2.77c-1.95-1.85-2.92-4.33-2.92-7.46s.97-5.62 2.92-7.46a9.93 9.93 0 017.1-2.77c2.78 0 5.14.92 7.1 2.77 1.94 1.84 2.91 4.33 2.91 7.46s-.97 5.61-2.92 7.46a9.96 9.96 0 01-7.1 2.77zm-7.67 102.96h15.52v-87.2h-15.52v87.2zm70.28-89.38c6.23 0 11.5.81 15.78 2.43a25.58 25.58 0 0110.35 6.87 26.1 26.1 0 015.6 10.57 51.34 51.34 0 011.66 13.5v54.5l-5.6.92a163.21 163.21 0 01-8.09 1.1c-3 .33-6.26.63-9.77.91-3.5.28-6.98.42-10.43.42-4.9 0-9.4-.5-13.52-1.5a30.2 30.2 0 01-10.69-4.78c-3-2.18-5.34-5.06-7.01-8.64-1.67-3.58-2.5-7.88-2.5-12.91 0-4.8.97-8.95 2.92-12.41a23.31 23.31 0 017.93-8.39 36.69 36.69 0 0111.68-4.7c4.45-1 9.13-1.5 14.03-1.5 1.55 0 3.17.08 4.84.25a57.9 57.9 0 014.76.67l3.92.75a70.52 70.52 0 012.34.5v-4.35c0-2.57-.28-5.12-.84-7.63a17.53 17.53 0 00-3-6.7 15.23 15.23 0 00-5.93-4.7c-2.5-1.18-5.76-1.77-9.77-1.77-5.12 0-9.6.37-13.44 1.1-3.83.72-6.7 1.48-8.6 2.26L453.4 44.6c2-.9 5.35-1.76 10.02-2.6a85.99 85.99 0 0115.19-1.26zm1.34 78.14c3.67 0 6.93-.08 9.76-.25a42.3 42.3 0 007.1-.92v-26c-1.12-.55-2.93-1.02-5.43-1.42-2.5-.39-5.54-.59-9.1-.59-2.33 0-4.81.17-7.43.51a22.86 22.86 0 00-7.17 2.1 15.38 15.38 0 00-5.43 4.36c-1.45 1.84-2.17 4.27-2.17 7.29 0 5.59 1.78 9.47 5.34 11.65 3.56 2.19 8.4 3.27 14.53 3.27z" fill="#091522"/></svg>