<svg width="1823" height="2500" viewBox="0 0 256 351" xmlns="http://www.w3.org/2000/svg" xmlns:xlink="http://www.w3.org/1999/xlink" preserveAspectRatio="xMidYMid"><defs><filter x="-50%" y="-50%" width="200%" height="200%" filterUnits="objectBoundingBox" id="b"><feGaussianBlur stdDeviation="17.5" in="SourceAlpha" result="shadowBlurInner1"/><feOffset in="shadowBlurInner1" result="shadowOffsetInner1"/><feComposite in="shadowOffsetInner1" in2="SourceAlpha" operator="arithmetic" k2="-1" k3="1" result="shadowInnerInner1"/><feColorMatrix values="0 0 0 0 0 0 0 0 0 0 0 0 0 0 0 0 0 0 0.06 0" in="shadowInnerInner1"/></filter><filter x="-50%" y="-50%" width="200%" height="200%" filterUnits="objectBoundingBox" id="d"><feGaussianBlur stdDeviation="3.5" in="SourceAlpha" result="shadowBlurInner1"/><feOffset dx="1" dy="-9" in="shadowBlurInner1" result="shadowOffsetInner1"/><feComposite in="shadowOffsetInner1" in2="SourceAlpha" operator="arithmetic" k2="-1" k3="1" result="shadowInnerInner1"/><feColorMatrix values="0 0 0 0 0 0 0 0 0 0 0 0 0 0 0 0 0 0 0.09 0" in="shadowInnerInner1"/></filter><path d="M1.25 280.73l1.6-3.13 99.36-188.52L58.06 5.61C54.4-1.3 45.07.47 43.87 8.19L1.25 280.73z" id="a"/><path d="M134.42 148.97l32.04-32.8-32.04-61.02c-3.04-5.79-10.44-6.4-13.45-.59l-17.7 34.11-.53 1.75 31.68 58.55z" id="c"/></defs><path d="M0 283l2.12-2.97L102.52 89.5l.22-2.02L58.48 4.37c-3.71-6.97-14.15-5.2-15.37 2.6L0 283z" fill="#FFC24A"/><use fill="#FFA712" fill-rule="evenodd" xlink:href="#a"/><use filter="url(#b)" xlink:href="#a"/><path d="M135 150.38l32.96-33.75-32.97-62.93c-3.12-5.96-11.86-5.98-14.96 0l-17.61 33.59v2.86L135 150.38z" fill="#F4BD62"/><use fill="#FFA50E" fill-rule="evenodd" xlink:href="#c"/><use filter="url(#d)" xlink:href="#c"/><path fill="#F6820C" d="M0 283l.96-.97 3.5-1.42 128.47-128 1.63-4.43-32.05-61.08z"/><path d="M139.12 347.55L255.4 282.7 222.2 78.2a7.95 7.95 0 00-13.48-4.33L0 283l115.6 64.55a24.13 24.13 0 0023.52 0" fill="#FDE068"/><path d="M254.35 282.16L221.4 79.22c-1.03-6.35-7.56-8.98-12.1-4.43L1.29 282.6l114.34 63.9a23.94 23.94 0 0023.33.01l115.4-64.35z" fill="#FCCA3F"/><path d="M139.12 345.64a24.13 24.13 0 01-23.51 0L.93 282 0 283l115.6 64.55a24.13 24.13 0 0023.52 0L255.4 282.7l-.29-1.75-115.99 64.7z" fill="#EEAB37"/></svg>