<svg width="1839" height="2500" viewBox="0 0 256 348" xmlns="http://www.w3.org/2000/svg" preserveAspectRatio="xMinYMin meet"><path d="M3.69 188.16c.5 10.26 10.75 5.48 15.34 2.3 4.38-3.1 5.67-.5 6.07-6.48.3-3.98.7-7.87.5-11.85-6.67-.6-13.85 1-19.32 4.98-2.9 1.99-8.07 8.56-2.6 11.05m204.5 126.11c7.88 4.88 22.32 19.63 10.47 26.8-11.36 10.36-17.73-11.46-27.7-14.45 4.29-5.87 9.67-11.25 17.24-12.35zM67.35 330.91c-9.27 1.4-14.45 9.76-22.22 14.04-7.27 4.29-10.06-1.4-10.66-2.59-1.09-.5-1 .5-2.78-1.3-6.78-10.65 6.97-18.42 14.14-23.7 9.96-2 16.24 6.67 21.52 13.55zm184.58-144.04c-.5 10.26-10.76 5.48-15.34 2.3-4.39-3.1-5.68-.5-6.08-6.48-.3-3.99-.7-7.87-.5-11.86 6.68-.6 13.85 1 19.33 4.98 2.79 2 8.07 8.57 2.59 11.06" fill="#F6D2A2"/><path d="M224.72 61.76C260.28 49.2 232.5.5 201.52 22 181.18 4.58 153.2 1.4 123.81 1.4 95.03 3.7 67.64 8.97 48.52 25.7 17.62 5.78-10.87 53.59 25.4 65.64c-10.16 39.45 1.4 79.7-.2 119.84-1.5 36.06-10.96 84.37 9.06 116.74 17.04 27.7 53.7 37.55 83.88 38.65 38.55 1.4 85.26-8.07 104-45.42 17.92-35.56 12.94-79.9 10.65-118.24-2.3-38.75 2-78.1-8.07-115.45z" fill="#69D7E2"/><path d="M254.6 180.8c-1-2.1-2.88-4.49-4.68-5.78-4.58-3.3-10.46-5.08-16.53-5.28-.2-6.18-.4-12.95-.4-21.52v-7.77c-.1-24.5-.4-35.26-1.8-48.7a197.2 197.2 0 00-5.17-29.5c8.07-3.08 13.34-8.16 15.44-14.74 1.99-6.07 1-12.94-2.4-19.02a26.37 26.37 0 00-15.53-12.25c-6.98-1.9-14.55-.5-21.82 4.38-6.47-5.48-13.94-9.66-22.31-12.85C164.56 2.29 147.32.2 123.92.2v1l-.1-1c-25 2-43.53 5.88-58.87 13.35A73.19 73.19 0 0048.5 24.3c-7.37-4.59-15.04-5.68-22.11-3.49a27.17 27.17 0 00-15.64 12.75c-3.39 6.08-4.19 13.05-1.9 19.03 2.3 5.97 7.57 10.65 15.44 13.54-2.49 10.06-3.78 20.72-3.98 32.48-.2 11.45.3 20.62 2.1 41.33 1.29 15.44 1.78 22.52 1.98 31.08-6.77-.3-13.54 1.5-18.62 5.18A14.85 14.85 0 001.1 182c-1.3 2.79-.8 5.28 1.79 6.77.4 4.79 3.09 6.98 7.17 6.58 2.99-.3 6.57-1.9 9.66-4.09a11.2 11.2 0 012.1-1.2c.3-.1.5-.2.8-.3 0 0 .59-.19.79-.29.3-.1.6-.2.8-.4-.2 4.68-.6 9.57-1.5 20.72-1 12.55-1.5 19.43-1.7 27.1-.89 28.48 2.5 49.2 12.66 65.64a64.77 64.77 0 0011.65 13.95c-.9.6-4.68 3.38-5.87 4.28-4.19 3.19-7.08 5.88-8.77 8.86-2.2 3.89-2.2 7.77.3 11.86l.1.1.1.1c1.1 1.1 1.7 1.4 2.49 1.4h.3c.1.2.2.29.3.49.3.5.6.9.9 1.3 2.48 2.88 5.97 3.58 10.65.8 2.49-1.3 4.28-2.8 8.07-5.99l.2-.2c6.07-5.17 9.06-7.07 13.54-7.76l1.6-.3c.6.3 1.2.5 1.9.8 14.14 5.67 30.57 8.76 47.2 9.36 21.52.8 42.24-1.9 59.77-8.27 4.68-1.7 9.07-3.69 13.25-5.88 2.6 1 4.78 3.09 8.97 7.97.2.2.2.2.3.4.2.2.2.3.3.4.2.3.5.5.7.8 3.28 3.88 5.47 5.77 7.96 6.87 3.29 1.4 6.47.7 9.76-2.3 5.78-3.58 6.18-9.16 2.4-15.53-2.7-4.48-7.38-9.17-11.76-12.15a68.86 68.86 0 0013.15-18.03c9.56-19.13 13.25-41.44 13.05-70.13-.1-10.16-.5-19.03-1.6-35.96v-.5c.5.2 1 .5 1.5.9 3.08 2.09 6.67 3.78 9.66 4.08 4.08.4 6.77-1.8 7.17-6.57 2.5-1.6 2.99-4.09 1.7-6.87zM222.94 18.32c5.98 1.6 11.16 5.78 14.34 11.35 3.2 5.58 4.09 11.86 2.3 17.44-1.9 5.87-6.68 10.56-14.15 13.34a162.04 162.04 0 00-5.28-15.74c2.89-2.49 4.28-5.57 2-9.96-2.3-4.38-6.28-4.88-10.37-3.58a74.44 74.44 0 00-8.46-9.17c6.57-4.18 13.34-5.38 19.62-3.68zM10.56 52c-2.1-5.38-1.4-11.76 1.8-17.34 3.18-5.57 8.36-9.96 14.54-11.75 6.37-1.9 13.24-1 20.02 2.99a65.54 65.54 0 00-10.36 11.85c-5.18-2.69-10.46-3.19-13.45 2.3-3.09 5.87.5 9.56 5.58 12.35a82.62 82.62 0 00-3.99 12.05c-7.27-2.8-12.05-7.07-14.14-12.45zm12.05 135.77c-.1 0-.7.2-.7.3-.3.1-.6.2-.9.4-.79.3-1.58.8-2.38 1.39-2.8 2-6.18 3.48-8.77 3.68-2.99.3-4.68-1-4.98-4.58 2.1-.7 2.99-1.2 3.79-2.39l-1.6-1.2c-.6.8-1.2 1.1-2.98 1.7-.1 0-.1 0-.2.1-1.6-.9-1.9-2.3-1-4.28.8-1.8 2.59-3.89 4.08-4.98 4.79-3.5 11.16-5.18 17.54-4.79 0 2.5.1 4.98 0 7.37 0 .3 0 .5-.1.8-.1 1.4-.1 2-.2 2.7-.3 2.88-.5 3.28-1.6 3.78zm30.09 150.3l-.2.2c-3.69 3.2-5.48 4.5-7.77 5.79-3.79 2.29-6.38 1.79-8.17-.4-.3-.3-.5-.7-.7-1-.1-.1-.2-.3-.3-.4v-.1c.2-1.79.9-3.09 2.7-5.87.1-.1.1-.1.1-.2 1.09-1.6 1.59-2.5 2.08-3.59l-1.79-.8c-.4.9-.9 1.7-1.9 3.3-.1.1-.1.1-.1.2-1.78 2.58-2.58 4.17-2.98 5.97h-.4c-.2-.1-.5-.3-.9-.7-3.88-6.18-.8-11.46 7.97-18.03 1.1-.8 4.78-3.39 5.78-4.18.2 0 .4-.1.6-.2a83.67 83.67 0 0018.62 11.85c0 .1.1.2.2.3-4.08 1-7.27 3.09-12.85 7.87zm167.24-10.85c3.09 5.18 2.99 9.36-.9 12.25-.3-.6-.5-1.3-.9-2.29 0-.1 0-.1-.1-.2-1.38-3.78-2.28-5.38-3.97-7.17l-1.4 1.4c1.5 1.4 2.2 2.89 3.59 6.37 0 .1 0 .1.1.2.5 1.3.8 2.1 1.1 2.79-2.6 2.2-4.89 2.59-7.28 1.5-2.1-.9-4.08-2.8-7.27-6.38-.2-.2-.4-.5-.6-.8-.1-.1-.2-.2-.3-.4-.2-.2-.2-.2-.3-.4-3.68-4.28-5.87-6.57-8.26-7.87a79.78 79.78 0 0015.04-10.95c4.18 3.09 8.86 7.67 11.45 11.95zm1.4-32.27c-8.57 17.23-23.71 29.38-44.03 36.75-17.33 6.28-37.85 8.87-59.07 8.07-36.56-1.3-68.23-14.04-83.08-38.15-9.96-16.04-13.24-36.46-12.35-64.55.3-7.67.7-14.54 1.7-27.09 1.1-14.15 1.39-18.23 1.69-24.6.2-4.59.2-9.27.1-14.25-.2-8.76-.7-15.74-2-31.38-1.79-20.72-2.28-29.78-2.09-41.14.3-14.94 2.3-28.09 6.48-40.54C35.46 37.85 47.9 24.2 65.84 15.34 80.88 7.97 99.11 4.18 123.92 2.19c23.2 0 40.14 2.1 54.78 7.47 17.53 6.48 30.58 17.83 39.55 35.27 5.78 14.14 9.16 29.38 10.96 46.91 1.39 13.35 1.69 24.1 1.79 48.51v7.77c.1 12.05.3 20.52.8 28.99l.8 12.55c1.09 16.93 1.49 25.7 1.59 35.86.2 28.59-3.4 50.6-12.85 69.43zm30.48-109.08c-.1 0-.2-.1-.3-.1-1.8-.6-2.4-1-2.99-1.69l-1.6 1.2c.9 1.2 1.8 1.69 3.8 2.39-.4 3.58-2.1 4.88-4.99 4.58-2.59-.2-5.98-1.8-8.76-3.69-.8-.6-1.6-1-2.4-1.4-.1 0-.2-.1-.3-.1-.4-5.47-.4-6.86-.6-9.75l-.3-5.38c5.59.1 11.07 1.8 15.25 4.88 1.5 1.1 3.29 3.19 4.08 4.98 1 1.7.8 3.19-.9 4.08z"/><path d="M138.92 104.12c.1 5.08 1.1 10.66.2 16.04-1.4 2.59-3.99 2.89-6.28 3.88a9.38 9.38 0 01-7.17-5.57c-.8-6.08.2-11.86.5-17.93 0-.2 3.78.1 7.17 1.1 2.89.89 5.58 2.38 5.58 2.48zm-28.2.4c-2.78 10.56 3.7 27.8 14.35 13.65-.8-5.98.1-11.76.4-17.63.1-.5-14.64 3.28-14.74 3.98z" fill="#FFF"/><path d="M140.11 108.8c-.2-2.98-.3-4.18-.3-5.67v-.7l-.7-.2-12.54-3.88v-.7l-1.3.3h-.1v.1l-14.14 3.58-.5.1-.2.5c-2.2 5.28-1.7 13.25 1.1 18.13 3.18 5.58 8.36 5.68 13.64-.7a10.2 10.2 0 007.47 5.38h.3l.3-.1c.4-.2.8-.3 1.5-.6.1 0 .1 0 .2-.1 2.88-1 4.08-1.79 5.07-3.68l.1-.1v-.2c.3-1.8.4-3.69.4-5.78 0-1.5-.1-2.89-.3-5.67zm-15.94-3.68c-.1 1.8-.2 2.49-.3 3.48-.2 3.7-.2 6.48.1 9.27-4.68 5.98-8.36 5.98-10.85 1.5-2.4-4.19-2.9-11.26-1.1-15.94l12.55-3.2c-.1 1.3-.2 2.6-.4 4.89zm13.95 14.74c-.7 1.2-1.6 1.8-3.98 2.6-.1 0-.1 0-.2.1-.6.2-1 .39-1.3.49a8.29 8.29 0 01-6.07-4.78c-.3-2.7-.3-5.48-.1-9.17.1-1 .1-1.69.3-3.48.2-2.3.3-3.69.3-4.98l10.85 3.28c0 1.3.1 2.5.3 5.08.2 2.7.3 4.09.3 5.68 0 1.9-.1 3.59-.4 5.18z"/><g transform="translate(48.48 21.98)"><path d="M2.3 38.75c9.15 35.66 66.23 26.5 64.04-9.26C63.75-13.36-6.47-5.08 2.3 38.75" fill="#FFF"/><path d="M67.34 29.39c-.6-10.36-5.18-18.43-12.75-23.51C47.8 1.3 38.85-.5 29.99.6 21.11 1.8 12.94 5.78 7.56 12.05 1.59 19.03-.7 28.2 1.39 38.75l.9-.2-.9.2c9.37 36.66 68.14 27.79 65.95-9.36zM3.19 38.55c-2-10.06.2-18.63 5.77-25.1 5.08-5.88 12.75-9.76 21.22-10.86 8.47-1.1 16.94.6 23.31 4.98 7.07 4.78 11.36 12.25 11.95 22.11 2.1 34.77-53.39 43.14-62.25 8.87z"/><ellipse cx="18.03" cy="32.87" rx="9.66" ry="10.46"/><ellipse fill="#FFF" cx="22.41" cy="35.26" rx="2.29" ry="2.69"/></g><g transform="translate(129.62 18.1)"><path d="M1.2 35.96c7.07 40.94 74 30.08 64.34-11.16C56.88-12.25-1.2-2 1.2 35.96" fill="#FFF"/><path d="M66.44 24.6C57.58-13.55-2.19-3.09.2 36.06v.1c3.29 19.32 20.52 29.19 39.55 26 8.66-1.5 16.43-5.68 21.51-11.86 5.58-6.87 7.57-15.73 5.18-25.7zm-6.67 24.5c-4.79 5.79-12.06 9.77-20.32 11.17-18.03 2.98-34.17-6.28-37.36-24.41C-.1-1 56.28-10.86 64.65 25c2.19 9.46.4 17.73-4.88 24.1z"/><ellipse cx="17.63" cy="34.17" rx="9.46" ry="10.46"/><ellipse fill="#FFF" cx="22.01" cy="36.56" rx="2.19" ry="2.69"/></g><path d="M112.78 83c-7.87.7-14.24 9.96-10.16 17.33 5.38 9.77 17.44-.9 24.9.1 8.67.2 15.75 9.17 22.62 1.6 7.67-8.37-3.29-16.54-11.95-20.12l-25.4 1.1z" fill="#F6D2A2"/><path d="M151.13 89.68c-2.69-3.4-7.37-6.48-12.45-8.57l-.2-.1h-.2l-25.5 1c-8.86.8-15.24 11.05-10.95 18.82 1.7 3 3.98 4.49 7.07 4.68 2.29.1 4.68-.4 8.37-1.69.3-.1.7-.2 1.2-.4 4.97-1.7 6.96-2.19 8.96-1.89h.1c2.39 0 4.38.7 8.16 2.2 4.19 1.68 5.48 2.18 7.57 2.38 2.9.2 5.38-.8 7.67-3.28 3.89-4.29 3.7-8.87.2-13.15zm-1.69 11.75c-1.9 2.1-3.78 2.79-6.07 2.69-1.8-.1-3-.6-6.98-2.2-3.98-1.69-6.17-2.28-8.76-2.38-2.5-.3-4.58.2-9.87 1.99-.5.2-.9.3-1.19.4-7.27 2.49-10.76 2.29-13.15-2.1-3.58-6.47 1.9-15.23 9.37-15.93l25.2-1c4.78 2 9.06 4.88 11.55 7.97 2.99 3.59 3.09 7.17-.1 10.56z" fill="#231F20"/><path d="M140.18 78.72c-3.09-11.36-28.99-9.66-28.4 3.88 1.3 10.06 31.39 7.37 28.4-3.88z"/></svg>