<svg width="2500" height="2432" viewBox="0 0 256 249" xmlns="http://www.w3.org/2000/svg" preserveAspectRatio="xMidYMid"><path d="M82.08 244.93a19.48 19.48 0 01-15.36-7.43l-57.8-71.84c-3.8-4.8-5.28-10.9-3.8-16.85l20.65-89.68A19.54 19.54 0 0136.5 45.75l83.57-39.97a19.3 19.3 0 018.6-1.98c2.97 0 5.94.66 8.58 1.98l83.57 39.8a19.54 19.54 0 0110.74 13.38l20.64 89.69c1.32 5.94 0 12.05-3.8 16.84l-57.8 71.85a20 20 0 01-15.36 7.43l-93.15.16z" fill="#326DE6"/><path d="M128.5 7.93c2.3 0 4.62.5 6.77 1.48l83.57 39.8c4.3 2.16 7.6 6.12 8.59 10.74l20.64 89.69c1.16 4.79 0 9.74-3.14 13.54l-57.8 71.85a15.74 15.74 0 01-12.39 5.94H82.08c-4.79 0-9.4-2.15-12.38-5.94l-57.8-71.85a16.53 16.53 0 01-3.15-13.54L29.4 59.95a15.77 15.77 0 018.59-10.73l83.57-39.97a19.89 19.89 0 016.94-1.32zm0-7.76a25 25 0 00-10.24 2.3L34.68 42.46A23.39 23.39 0 0021.8 58.47L1.16 148.15c-1.66 7.1 0 14.37 4.62 20.15l57.8 71.84a23.33 23.33 0 0018.34 8.76h92.65c7.1 0 13.88-3.14 18.34-8.75l57.8-71.85a23.3 23.3 0 004.63-20.15l-20.65-89.68a23.39 23.39 0 00-12.88-16.02L138.57 2.48A23.7 23.7 0 00128.5.17z" fill="#FFF"/><path d="M212.23 142.53c-.16 0-.16 0 0 0h-.16c-.17 0-.33 0-.33-.16-.33 0-.66-.17-1-.17-1.15-.16-2.14-.33-3.13-.33-.5 0-1 0-1.65-.16h-.17c-3.47-.33-6.27-.66-8.92-1.49-1.15-.5-1.48-1.15-1.82-1.81 0-.17-.16-.17-.16-.33l-2.15-.67a65.33 65.33 0 00-1.15-23.28 68.05 68.05 0 00-9.25-21.64l1.65-1.49v-.33c0-.82.16-1.65.82-2.47 1.99-1.82 4.46-3.3 7.44-5.12.5-.33.99-.5 1.48-.83 1-.5 1.82-.99 2.81-1.65.17-.17.5-.33.83-.66.16-.17.33-.17.33-.33 2.31-1.98 2.8-5.29 1.15-7.43a4.7 4.7 0 00-3.8-1.82c-1.32 0-2.47.5-3.63 1.32l-.33.33c-.33.17-.5.5-.82.66-.83.83-1.5 1.49-2.15 2.31-.33.33-.66.83-1.16 1.16a41.98 41.98 0 01-6.6 5.95c-.5.33-1 .5-1.49.5-.33 0-.66 0-1-.18h-.32l-1.98 1.33c-2.15-2.31-4.46-4.3-6.78-6.28a65.96 65.96 0 00-34.51-13.7l-.17-2.15-.33-.33c-.5-.5-1.16-1-1.32-2.15-.17-2.64.16-5.62.5-8.92v-.17c0-.5.16-1.15.32-1.65.17-.99.33-1.98.5-3.14v-1.48c0-2.97-2.31-5.45-5.12-5.45a5.3 5.3 0 00-3.63 1.65 5.24 5.24 0 00-1.49 3.8v1.32c0 1.16.17 2.15.5 3.14.16.5.16.99.33 1.65v.16c.33 3.3.82 6.28.5 8.92-.17 1.16-.83 1.65-1.33 2.15l-.33.33-.17 2.15c-2.97.33-5.94.66-8.91 1.32a63.68 63.68 0 00-32.7 18.5l-1.66-1.16h-.33c-.33 0-.66.17-.99.17-.5 0-.99-.17-1.49-.5-2.14-1.49-4.29-3.63-6.6-6.11-.33-.33-.66-.83-1.16-1.16a27.31 27.31 0 00-2.15-2.3c-.16-.17-.49-.34-.82-.67-.17-.17-.33-.17-.33-.33a5.77 5.77 0 00-3.63-1.32 4.7 4.7 0 00-3.8 1.82c-1.66 2.14-1.16 5.45 1.15 7.43.17 0 .17.16.33.16.33.17.5.5.83.66.99.66 1.82 1.16 2.8 1.66.5.16 1 .49 1.5.82 2.97 1.82 5.44 3.3 7.43 5.12.82.83.82 1.65.82 2.48v.33l1.65 1.48c-.33.5-.66.83-.82 1.33a64.33 64.33 0 00-9.25 43.6l-2.15.66c0 .16-.16.16-.16.33a3.84 3.84 0 01-1.82 1.82c-2.48.82-5.45 1.15-8.92 1.48h-.17c-.49 0-1.15 0-1.65.17-.99 0-1.98.16-3.13.33-.33 0-.66.16-1 .16-.16 0-.33 0-.5.17-2.96.66-4.78 3.47-4.29 6.1.5 2.32 2.65 3.8 5.29 3.8.5 0 .83 0 1.32-.16.17 0 .33 0 .33-.16.33 0 .66-.17 1-.17 1.15-.33 1.97-.66 2.97-1.15.5-.17.99-.5 1.48-.66h.17c3.13-1.16 5.94-2.15 8.59-2.48h.33c.99 0 1.65.5 2.14.83.17 0 .17.16.33.16l2.32-.33a65.33 65.33 0 0021.63 31.05 66.98 66.98 0 007.1 4.79l-.99 2.15c0 .16.17.16.17.33.33.66.66 1.48.33 2.64a46.47 46.47 0 01-4.3 7.76v.17c-.33.5-.66.82-.99 1.32-.66.82-1.15 1.65-1.81 2.64-.17.17-.33.5-.5.83 0 .16-.16.33-.16.33-1.33 2.8-.33 5.94 2.14 7.1.66.33 1.32.5 1.98.5a5.94 5.94 0 004.96-3.14c0-.17.16-.33.16-.33.17-.33.33-.66.5-.83.5-1.16.66-1.98 1-2.97l.49-1.49c1.15-3.3 1.98-5.94 3.46-8.26.66-.99 1.5-1.15 2.15-1.48.17 0 .17 0 .33-.17l1.16-2.15c7.27 2.81 15.2 4.3 23.12 4.3 4.8 0 9.75-.5 14.37-1.65a73.4 73.4 0 008.59-2.48l.99 1.82c.16 0 .16 0 .33.16.83.17 1.49.5 2.15 1.49 1.32 2.31 2.3 5.12 3.46 8.26v.16l.5 1.49c.33.99.5 1.98 1 2.97.16.33.32.5.49.83 0 .16.16.33.16.33a5.6 5.6 0 004.96 3.14 4.4 4.4 0 001.98-.5 4.92 4.92 0 002.48-2.97c.33-1.33.33-2.81-.33-4.13 0-.17-.17-.17-.17-.33-.16-.33-.33-.66-.5-.83-.49-.99-1.15-1.82-1.81-2.64-.33-.5-.66-.83-1-1.32v-.17c-1.8-2.8-3.46-5.28-4.29-7.76-.33-1.16 0-1.82.17-2.64 0-.17.16-.17.16-.33l-.82-1.99a64 64 0 0021.8-21.3 64 64 0 006.94-14.87l1.98.33c.16 0 .16-.16.33-.16.66-.33 1.15-.83 2.15-.83h.33c2.64.33 5.45 1.32 8.58 2.48h.17c.5.17.99.5 1.49.66.99.5 1.81.83 2.97 1.16.33 0 .66.16.99.16.17 0 .33 0 .5.17.5.16.82.16 1.32.16a5.56 5.56 0 005.28-3.8c0-1.98-1.82-4.62-4.79-5.45zm-76.47-8.09l-7.26 3.47-7.27-3.47-1.82-7.76 4.96-6.28h8.09l4.95 6.28-1.65 7.76zm43.11-17.17a52.08 52.08 0 011.16 16.68l-25.27-7.27a4.48 4.48 0 01-3.14-5.29c.16-.66.5-1.32.99-1.81l19.98-18a52.97 52.97 0 016.28 15.68zm-14.2-25.6l-21.64 15.35a4.4 4.4 0 01-5.78-.99c-.5-.5-.66-1.15-.83-1.81l-1.48-26.93a50.13 50.13 0 0129.73 14.37zm-47.9-13.55c1.82-.33 3.47-.66 5.28-.99l-1.48 26.43a4.52 4.52 0 01-4.46 4.29c-.66 0-1.49-.17-1.98-.5L92.16 91.67a50.38 50.38 0 0124.6-13.55zm-32.54 23.45l19.66 17.51a4.4 4.4 0 01.5 6.11 3.3 3.3 0 01-1.99 1.32l-25.6 7.44a53.17 53.17 0 017.43-32.38zm-4.46 44.76l26.26-4.46a4.45 4.45 0 014.63 3.47c.16 1 .16 1.82-.17 2.64l-10.07 24.28a52.06 52.06 0 01-20.65-25.93zm60.29 32.87c-3.8.82-7.6 1.32-11.56 1.32-5.78 0-11.4-.99-16.68-2.64l13.04-23.62c1.32-1.49 3.47-2.15 5.29-1.16a7.04 7.04 0 011.98 1.82l12.72 22.96c-1.49.5-3.14.82-4.8 1.32zm32.2-22.96a52.43 52.43 0 01-15.85 16.02L146 147.32a4.45 4.45 0 012.3-5.12c.67-.33 1.5-.5 2.32-.5l26.42 4.47c-.99 3.63-2.64 6.93-4.79 10.07z" fill="#FFF"/></svg>