<svg width="2500" height="2500" viewBox="0 0 256 256" xmlns="http://www.w3.org/2000/svg" preserveAspectRatio="xMinYMin meet"><g fill="#F35045"><path d="M160.44 208c2 2.89 3.23 2.67 4.78 2 1.56-.67 81.56-27.67 84-28.55 2.45-.9 1.67-1.67.9-2.9-.79-1.22-27.45-37.44-28.79-39.55-1.33-2.11-2-1.67-4.1-1l-84.81 22.07s26.03 45.04 28.03 47.93zM256 171.12v-42.4l-26.37 7.02c7.18 9.62 18.42 24.66 26.37 35.38zm-26.46-87.6c-1.3.3-30.24 5.53-32.03 5.77-1.78.23-1.18 1.24-.47 2.25l25.47 34.95s31.14-7.73 33.04-8.15l.45-.1v-4.63c-5.66-7.18-21.08-26.72-22.41-28.54-1.6-2.2-2.74-1.85-4.05-1.55z"/><path d="M47.46 28.63c6.26-.28 6.84 1.15 9.59 5.23l69.17 115.64 86.97-20.84-28.8-40.8c-2.38-3.33.05-4.87 3.92-5.53 3.86-.65 37.14-6.24 39.99-6.65 2.85-.42 5.1-1.43 9.74 4.16 2.38 2.85 10.42 12.87 17.96 22.25V48c0-13.22-4.7-24.53-14.08-33.92C232.52 4.7 221.22 0 208 0H48C34.78 0 23.47 4.7 14.08 14.08A47.14 47.14 0 002.57 32.13c15.68-1.28 40.5-3.3 44.89-3.5z"/><path d="M168.29 223.56c-7.34 2.23-10.62 3.33-15.4-3.34-3.58-5-22.93-39.84-32.42-57.02-17.95 4.7-50.8 13.28-60.29 15.55-9.24 2.23-13.2-3.32-14.71-6.74-1.07-2.4-28.18-60.85-45.47-98.36V208c0 13.22 4.7 24.53 14.08 33.92C23.48 251.3 34.78 256 48 256h160c13.22 0 24.53-4.7 33.92-14.08 9.39-9.4 14.08-20.7 14.08-33.92v-15.78c-19.64 7.18-82.77 29.85-87.71 31.34z"/><path d="M60.41 165.29c2.6-.6 51.32-12.25 52.36-12.48 1.04-.22 1.7-.81.59-2.74L48.42 37.97c-.58-1-.42-1.34-2.02-1.26-1.42.08-37.53 3.3-45.9 4a51.04 51.04 0 00-.46 5.33c8.5 17.37 57.2 117.84 57.48 118.65.3.9.3 1.2 2.9.6z"/></g></svg>