<svg width="2500" height="2500" viewBox="0 0 256 256" xmlns="http://www.w3.org/2000/svg" preserveAspectRatio="xMidYMid"><path d="M153.1 165.68l-62.8-13.12a14.63 14.63 0 01-.87 1.47l57.16 83.38 3.45-3.44 9.72-60.47a11.46 11.46 0 01-6.67-7.82zM130.18 83.6a13.15 13.15 0 01-13.12 5.82l-28.63 44.8 76.5-32.92c-.03-.3-.1-.6-.1-.91 0-.64.1-1.27.2-1.88l-34.85-14.9zm2.08-8.16l37.06 15.85a11.45 11.45 0 013.98-2l6.1-37.89-23.22-23.2-26.12 40.87a13.01 13.01 0 012.2 6.37zm77.67 6.5l-23.26-23.27-5.06 31.4a11.63 11.63 0 013.4 2.6l24.91-10.74zM154.2 157.4a11.36 11.36 0 019.09-5.85l6.68-41.55c-.53-.34-1-.76-1.46-1.19L91.6 141.93c.2.8.33 1.63.4 2.48l62.22 13zm62.06-69.14l-26.91 11.58 66.4 28.4.24-.25-39.73-39.73zm-48.1 85.35l-8.08 50.29 46.97-46.97-33.83-7.06a11.37 11.37 0 01-5.05 3.74zM76.9 160.7c-1.7 0-3.32-.29-4.85-.8l-15.6 24.4-6.03-6.01 14.78-23.12a16.07 16.07 0 01-1.02-1.42L37.4 165.26l-6.34-6.34 29.3-12.61-52.98-11.06L.14 128l2.3-2.29 61.08 12.75a14.98 14.98 0 012.67-3.61L36.54 91.6l5.99-5.99L73.5 130.8a15.28 15.28 0 013.4-.4c1.3 0 2.57.19 3.78.5l28.98-45.35a13.13 13.13 0 01-3.67-9.12c0-1.04.13-2.05.36-3.02L70.19 57.95l6.34-6.34 34.26 14.65A13.12 13.12 0 01123.44 64l26.73-41.82L128 0 0 128l128 128 12.6-12.6-57.59-84a15.12 15.12 0 01-6.12 1.3zm101.23-48.89l-6.8 42.24a11.36 11.36 0 014.2 7.82l38.58 8.05 35.32-35.32-63.76-27.26a11.5 11.5 0 01-7.54 4.48z" fill="#25C7B7"/></svg>