<svg width="2500" height="527" viewBox="0 0 512 108" xmlns="http://www.w3.org/2000/svg" preserveAspectRatio="xMinYMin meet"><path d="M96.17 107.15a11.1 11.1 0 01-7.86-3.25L22.54 38.12v57.92a11.11 11.11 0 11-22.22 0V11.29c0-4.5 2.7-8.55 6.86-10.27a11.1 11.1 0 0112.11 2.4L85.06 69.2V11.3a11.11 11.11 0 1122.23 0v84.75a11.12 11.12 0 01-11.12 11.11M147.64.28l-3.05 5.7-23.62 42.92-3.06 5.43 3.06 5.4 23.62 41.55 3.19 5.7h61.82l3.06-6.26 17.64-35.56 7.92-16.12H220.3l-45.15.14c-5.87-.08-11.28 5.24-11.28 11.11 0 5.88 5.4 11.2 11.28 11.12l27.23-.14-6.67 13.47H160.7l-17.37-30.56 17.5-31.67h37.25l8.68 17.81h22.37l-14.1-33.79-3.06-6.25h-64.33m112.6-.14c-5.83.07-11.06 5.43-10.98 11.25v28.97h22.22V11.39c.07-5.91-5.34-11.32-11.25-11.25m35.63 107.22a11.12 11.12 0 01-11.11-11.11V11.5a11.11 11.11 0 1122.23 0v57.92l65.77-65.78a11.1 11.1 0 0112.1-2.41 11.12 11.12 0 016.87 10.27v84.75a11.11 11.11 0 11-22.23 0V38.33l-65.77 65.78a11.1 11.1 0 01-7.86 3.25M474.04 53.8l34.58-34.45a11.12 11.12 0 00-15.7-15.74L458.3 38.1 423.68 3.6a11.1 11.1 0 10-15.7 15.74l34.58 34.45-34.47 34.35a11.1 11.1 0 00-.03 15.72 11.06 11.06 0 007.87 3.27c2.84 0 5.67-1.08 7.84-3.25l34.53-34.4 34.53 34.4a11.07 11.07 0 007.84 3.25 11.11 11.11 0 007.85-18.99L474.04 53.8m-213.8 53.26c-5.83-.07-11.06-5.43-10.98-11.25V49.27h22.22V95.8c.07 5.9-5.34 11.32-11.25 11.25" fill="#090"/></svg>