<svg width="2500" height="1533" viewBox="0 0 512 314" xmlns="http://www.w3.org/2000/svg" xmlns:xlink="http://www.w3.org/1999/xlink" preserveAspectRatio="xMidYMid"><defs><linearGradient x1="68.19%" y1="17.49%" x2="27.82%" y2="89.75%" id="b"><stop stop-color="#41873F" offset="0%"/><stop stop-color="#418B3D" offset="32.88%"/><stop stop-color="#419637" offset="63.52%"/><stop stop-color="#3FA92D" offset="93.19%"/><stop stop-color="#3FAE2A" offset="100%"/></linearGradient><linearGradient x1="43.28%" y1="55.17%" x2="159.25%" y2="-18.31%" id="d"><stop stop-color="#41873F" offset="13.76%"/><stop stop-color="#54A044" offset="40.32%"/><stop stop-color="#66B848" offset="71.36%"/><stop stop-color="#6CC04A" offset="90.81%"/></linearGradient><linearGradient x1="-4413.77%" y1="13.43%" x2="5327.93%" y2="13.43%" id="e"><stop stop-color="#6CC04A" offset="9.19%"/><stop stop-color="#66B848" offset="28.64%"/><stop stop-color="#54A044" offset="59.68%"/><stop stop-color="#41873F" offset="86.24%"/></linearGradient><linearGradient x1="-4.39%" y1="50%" x2="101.5%" y2="50%" id="f"><stop stop-color="#6CC04A" offset="9.19%"/><stop stop-color="#66B848" offset="28.64%"/><stop stop-color="#54A044" offset="59.68%"/><stop stop-color="#41873F" offset="86.24%"/></linearGradient><linearGradient x1="-9713.77%" y1="36.21%" x2="27.93%" y2="36.21%" id="g"><stop stop-color="#6CC04A" offset="9.19%"/><stop stop-color="#66B848" offset="28.64%"/><stop stop-color="#54A044" offset="59.68%"/><stop stop-color="#41873F" offset="86.24%"/></linearGradient><linearGradient x1="-103.86%" y1="50.27%" x2="100.8%" y2="50.27%" id="h"><stop stop-color="#6CC04A" offset="9.19%"/><stop stop-color="#66B848" offset="28.64%"/><stop stop-color="#54A044" offset="59.68%"/><stop stop-color="#41873F" offset="86.24%"/></linearGradient><linearGradient x1="130.61%" y1="-211.07%" x2="4.39%" y2="201.6%" id="i"><stop stop-color="#41873F" offset="0%"/><stop stop-color="#418B3D" offset="32.88%"/><stop stop-color="#419637" offset="63.52%"/><stop stop-color="#3FA92D" offset="93.19%"/><stop stop-color="#3FAE2A" offset="100%"/></linearGradient><path id="a" d="M57.9 1.85a5.96 5.96 0 00-5.9 0L3.36 29.93a5.77 5.77 0 00-2.89 5.09V91.3a6.02 6.02 0 002.9 5.09L52 124.47a5.96 5.96 0 005.9 0l48.65-28.08a5.77 5.77 0 002.9-5.09V35.02a6.02 6.02 0 00-2.9-5.09L57.9 1.85z"/></defs><g fill="none"><path d="M253.11 313.1c-1.73 0-3.35-.47-4.85-1.28l-15.37-9.13c-2.32-1.27-1.16-1.73-.47-1.96a28.04 28.04 0 006.94-3.12c.34-.23.8-.12 1.15.11l11.8 7.05c.45.23 1.03.23 1.38 0l46.11-26.7c.46-.23.7-.69.7-1.27v-53.28c0-.57-.23-1.04-.7-1.27l-46.11-26.58c-.46-.23-1.04-.23-1.39 0l-46.11 26.58c-.47.23-.7.81-.7 1.27v53.28c0 .47.23 1.04.7 1.27l12.6 7.29c6.81 3.46 11.09-.58 11.09-4.63v-52.58c0-.7.58-1.4 1.39-1.4h5.9c.69 0 1.38.59 1.38 1.4v52.58c0 9.13-4.97 14.45-13.64 14.45-2.66 0-4.74 0-10.63-2.89l-12.14-6.93a9.75 9.75 0 01-4.85-8.44v-53.28c0-3.47 1.85-6.7 4.85-8.44l46.12-26.7a10.32 10.32 0 019.7 0l46.12 26.7a9.75 9.75 0 014.85 8.44v53.28c0 3.47-1.85 6.7-4.85 8.44l-46.12 26.7c-1.5.69-3.23 1.03-4.85 1.03zm14.22-36.64c-20.23 0-24.39-9.25-24.39-17.1 0-.7.58-1.4 1.39-1.4h6c.7 0 1.28.47 1.28 1.16.92 6.13 3.58 9.13 15.83 9.13 9.71 0 13.87-2.2 13.87-7.4 0-3-1.15-5.2-16.3-6.7-12.6-1.27-20.45-4.04-20.45-14.1 0-9.36 7.86-14.9 21.03-14.9 14.8 0 22.08 5.08 23 16.17 0 .35-.11.7-.34 1.04-.24.23-.58.46-.93.46h-6c-.59 0-1.16-.46-1.28-1.04-1.39-6.35-4.97-8.43-14.45-8.43-10.63 0-11.9 3.7-11.9 6.47 0 3.35 1.5 4.4 15.83 6.24 14.22 1.85 20.92 4.5 20.92 14.45-.11 10.17-8.43 15.95-23.11 15.95z" fill="#539E43"/><path d="M110.03 104.71a5.88 5.88 0 00-3-5.08l-49.01-28.2a7.12 7.12 0 00-2.66-.81h-.46a5.5 5.5 0 00-2.66.8l-49 28.2c-1.85 1.05-3 3.01-3 5.1l.1 75.8c0 1.05.59 2.09 1.5 2.55.93.58 2.09.58 2.9 0l29.12-16.64c1.85-1.04 3-3 3-5.09v-35.48a5.88 5.88 0 013.01-5.08l12.37-7.17a5.6 5.6 0 013-.8c1.05 0 2.09.22 2.9.8l12.36 7.17c1.85 1.04 3 3 3 5.08v35.48a5.88 5.88 0 003.01 5.09l29.13 16.64c.92.58 2.08.58 3 0 .93-.46 1.5-1.5 1.5-2.54l-.11-75.82zM345.57.35a3.18 3.18 0 00-2.89 0c-.92.57-1.5 1.5-1.5 2.54V78c0 .7-.35 1.39-1.04 1.85-.7.35-1.39.35-2.08 0l-12.25-7.05a5.96 5.96 0 00-5.9 0l-49 28.32c-1.85 1.04-3 3-3 5.08v56.52a5.88 5.88 0 003 5.09l49 28.31a5.96 5.96 0 005.9 0l49-28.31c1.85-1.04 3-3 3-5.09V21.84c0-2.2-1.15-4.16-3-5.2L345.57.34zm-4.5 143.77c0 .58-.24 1.04-.7 1.27l-16.76 9.71a1.71 1.71 0 01-1.5 0l-16.76-9.7c-.46-.24-.7-.82-.7-1.28v-19.41c0-.58.24-1.04.7-1.28l16.76-9.7a1.71 1.71 0 011.5 0l16.76 9.7c.46.23.7.81.7 1.28v19.41zm167.58-19.88a5.77 5.77 0 002.89-5.08V105.4a6.02 6.02 0 00-2.9-5.09L460 72.12a5.96 5.96 0 00-5.9 0l-49 28.32c-1.85 1.04-3 3-3 5.08v56.52a5.88 5.88 0 003 5.08l48.66 27.74a5.74 5.74 0 005.78 0L489 178.45c.93-.46 1.5-1.5 1.5-2.54s-.58-2.08-1.5-2.55l-49.23-28.31a3.01 3.01 0 01-1.5-2.54v-17.69c0-1.04.57-2.08 1.5-2.54l15.37-8.78a2.82 2.82 0 013 0l15.37 8.78c.93.58 1.5 1.5 1.5 2.54v13.87c0 1.04.58 2.08 1.5 2.54.93.58 2.09.58 3.01 0l29.13-16.99z" fill="#333"/><path d="M456.3 121.59a1.05 1.05 0 011.15 0l9.36 5.43c.35.23.58.58.58 1.04v10.86c0 .46-.23.81-.58 1.04l-9.36 5.43a1.05 1.05 0 01-1.16 0l-9.36-5.43a1.21 1.21 0 01-.58-1.04v-10.86c0-.47.23-.81.58-1.04l9.36-5.43z" fill="#539E43"/><g transform="translate(134.07 70.5)"><mask id="c" fill="#fff"><use xlink:href="#a"/></mask><use fill="url(#b)" xlink:href="#a"/><g mask="url(#c)"><path d="M51.9 1.85L3.11 29.93A6 6 0 000 35.02v56.29c0 1.38.58 2.65 1.5 3.7L56.28 1.15a6.6 6.6 0 00-4.39.69zm4.73 123.2a7.1 7.1 0 001.39-.57l48.77-28.09c1.85-1.04 3-3 3-5.09V35.02c0-1.5-.69-3-1.73-4.05l-51.43 94.08z"/><path d="M106.68 29.93L57.78 1.85a8.03 8.03 0 00-1.5-.58L1.5 95.12a6.08 6.08 0 001.62 1.39l48.89 28.08c1.39.81 3 1.04 4.5.58l51.44-94.08a6.07 6.07 0 00-1.27-1.15z" fill="url(#d)"/></g><g mask="url(#c)"><path d="M109.8 91.3V35.03a6 6 0 00-3.12-5.09L57.78 1.85a5.1 5.1 0 00-1.84-.7l53.5 91.43c.24-.35.36-.81.36-1.27zM3.12 29.94A6 6 0 000 35.02v56.29c0 2.08 1.39 4.04 3.12 5.08l48.89 28.09c1.16.69 2.43.92 3.81.69L3.47 29.82l-.35.11z"/><path fill="url(#e)" fill-rule="evenodd" d="M50.4.8l-.7.36h.92L50.4.8z" transform="translate(0 -9.25)"/><path d="M106.8 105.64a6.57 6.57 0 002.88-3.7L56.05 10.4a5.87 5.87 0 00-4.16.7L3.35 39.05l52.36 95.47a8.06 8.06 0 002.2-.7l48.88-28.2z" fill="url(#f)" fill-rule="evenodd" transform="translate(0 -9.25)"/><path fill="url(#g)" fill-rule="evenodd" d="M111.3 104.71l-.35-.58v.81l.35-.23z" transform="translate(0 -9.25)"/><path d="M106.8 105.64l-48.78 28.08a6.97 6.97 0 01-2.2.7l.93 1.73 54.09-31.32v-.7l-1.39-2.3a5.37 5.37 0 01-2.66 3.8z" fill="url(#h)" fill-rule="evenodd" transform="translate(0 -9.25)"/><path d="M106.8 105.64l-48.78 28.08a6.97 6.97 0 01-2.2.7l.93 1.73 54.09-31.32v-.7l-1.39-2.3a5.37 5.37 0 01-2.66 3.8z" fill="url(#i)" fill-rule="evenodd" transform="translate(0 -9.25)"/></g></g></g></svg>