<svg width="2500" height="2148" viewBox="0 0 256 220" xmlns="http://www.w3.org/2000/svg" preserveAspectRatio="xMinYMin meet"><path d="M245.97 168.94c-13.66 7.12-84.43 36.22-99.5 44.08-15.07 7.85-23.44 7.78-35.34 2.09-11.9-5.7-87.22-36.11-100.78-42.6C3.57 169.27 0 166.54 0 163.95v-25.87s98.05-21.35 113.88-27.03c15.83-5.68 21.32-5.88 34.79-.95 13.47 4.94 94.02 19.47 107.33 24.34v25.51c0 2.56-3.08 5.37-10.03 9" fill="#912626"/><path d="M245.97 143.22c-13.67 7.12-84.44 36.22-99.5 44.07-15.07 7.86-23.44 7.78-35.34 2.1-11.9-5.7-87.22-36.12-100.78-42.6-13.57-6.49-13.85-10.95-.53-16.17 13.33-5.22 88.23-34.6 104.06-40.28 15.83-5.68 21.32-5.89 34.79-.95 13.47 4.93 83.82 32.94 97.13 37.81 13.31 4.88 13.83 8.9.16 16.02" fill="#C6302B"/><path d="M245.97 127.07c-13.66 7.13-84.43 36.22-99.5 44.08-15.07 7.85-23.44 7.78-35.34 2.09-11.9-5.69-87.22-36.11-100.78-42.6C3.57 127.4 0 124.67 0 122.1V96.2s98.05-21.35 113.88-27.03c15.83-5.68 21.32-5.88 34.79-.95C162.14 73.17 242.69 87.7 256 92.57v25.52c0 2.55-3.08 5.36-10.03 8.98" fill="#912626"/><path d="M245.97 101.35c-13.67 7.12-84.44 36.22-99.5 44.08-15.07 7.85-23.44 7.77-35.34 2.08-11.9-5.68-87.22-36.1-100.78-42.6-13.57-6.47-13.85-10.94-.53-16.16 13.33-5.22 88.23-34.6 104.06-40.28 15.83-5.68 21.32-5.88 34.79-.95 13.47 4.93 83.82 32.93 97.13 37.81 13.31 4.88 13.83 8.9.16 16.02" fill="#C6302B"/><path d="M245.97 83.65c-13.66 7.12-84.43 36.22-99.5 44.08-15.07 7.86-23.44 7.78-35.34 2.09-11.9-5.69-87.22-36.11-100.78-42.6C3.57 83.98 0 81.25 0 78.67V52.79s98.05-21.35 113.88-27.03c15.83-5.68 21.32-5.88 34.79-.95 13.47 4.94 94.02 19.47 107.33 24.35v25.5c0 2.56-3.08 5.37-10.03 9" fill="#912626"/><path d="M245.97 57.93c-13.67 7.12-84.44 36.22-99.5 44.07-15.07 7.86-23.44 7.78-35.34 2.1-11.9-5.7-87.22-36.12-100.78-42.6-13.57-6.48-13.85-10.95-.53-16.17 13.33-5.22 88.23-34.6 104.06-40.28 15.83-5.68 21.32-5.88 34.79-.95 13.47 4.94 83.82 32.94 97.13 37.81 13.31 4.88 13.83 8.9.16 16.02" fill="#C6302B"/><path d="M159.28 32.76l-22 2.28-4.93 11.86-7.96-13.23-25.42-2.29 18.97-6.83-5.7-10.5L130 20.99l16.74-5.48-4.52 10.86 17.06 6.39m-28.25 57.52L89.95 73.24l58.86-9.04-17.78 26.07M74.08 39.36c17.38 0 31.46 5.46 31.46 12.2 0 6.73-14.08 12.19-31.46 12.19s-31.46-5.46-31.46-12.2c0-6.73 14.09-12.2 31.46-12.2" fill="#FFF"/><path d="M185.3 36l34.83 13.76-34.8 13.76-.04-27.52" fill="#621B1C"/><path d="M146.75 51.24L185.3 36l.03 27.52-3.77 1.47-34.8-13.75" fill="#9A2928"/></svg>