<svg width="2500" height="2500" viewBox="0 0 256 256" xmlns="http://www.w3.org/2000/svg" preserveAspectRatio="xMidYMid"><path d="M255.64 127.68c0 70.52-57.17 127.68-127.69 127.68S.27 198.2.27 127.68C.27 57.16 57.44 0 127.95 0c70.52 0 127.69 57.16 127.69 127.68z" fill="#DD4814"/><path d="M41.13 110.63a17.05 17.05 0 100 34.1 17.05 17.05 0 000-34.1zm121.72 77.48a17.04 17.04 0 1017.03 29.52 17.04 17.04 0 00-17.03-29.52zm-84.69-60.43a49.73 49.73 0 0121.17-40.74L86.87 66.07a74.22 74.22 0 00-30.62 43.04 23.9 23.9 0 018.82 18.57 23.9 23.9 0 01-8.82 18.57 74.17 74.17 0 0030.62 43.05l12.46-20.88a49.7 49.7 0 01-21.17-40.74zm49.8-49.8a49.8 49.8 0 0149.59 45.39l24.29-.36a73.82 73.82 0 00-22-48.03 23.9 23.9 0 01-32.1-18.56 74.26 74.26 0 00-19.79-2.7 73.79 73.79 0 00-32.82 7.67l11.85 21.23a49.6 49.6 0 0120.97-4.63zm0 99.6a49.6 49.6 0 01-20.98-4.64l-11.85 21.23a73.71 73.71 0 0032.83 7.67 74.04 74.04 0 0019.78-2.7 23.88 23.88 0 0111.66-16.9 23.88 23.88 0 0120.44-1.66 73.83 73.83 0 0022-48.03l-24.3-.36a49.78 49.78 0 01-49.59 45.38zm34.88-110.23a17.03 17.03 0 1017.05-29.5 17.03 17.03 0 00-17.05 29.5z" fill="#FFF"/></svg>