<?xml version="1.0" standalone="no"?>
<!DOCTYPE svg PUBLIC "-//W3C//DTD SVG 20010904//EN"
  "http://www.w3.org/TR/2001/REC-SVG-20010904/DTD/svg10.dtd">
<svg width="500" height="500">
<g style="<defs>
</defs>
">
<g style="">
  <path d="M315.14,337.95A130.46,130.46,0,1,1,184.68,207.48c2.48,0,4.94.07,7.38.22a130.49,130.49,0,0,0,115.88,87.42A129.72,129.72,0,0,1,315.14,337.95Z"/>
</g>
<g style="">
  <path d="M307.94,295.12A130.49,130.49,0,0,1,192.06,207.7,130.49,130.49,0,0,1,307.94,295.12Z"/>
</g>
<g style="">
  <path d="M445.78,164.87A130.47,130.47,0,0,1,315.32,295.34c-2.48,0-4.94-.07-7.38-.22A130.49,130.49,0,0,0,192.06,207.7a130.47,130.47,0,1,1,253.72-42.83Z"/>
</g>
</g>
</svg>
